<svg xmlns="http://www.w3.org/2000/svg" viewBox="0 0 1200 800" role="img" aria-label="Arena nonsense brasileira">
  <rect width="1200" height="800" fill="#111315"/>
  <path d="M0 520c150-90 290-76 420-26 170 66 280 62 430-10 134-65 238-78 350-26v342H0z" fill="#1b1f22"/>
  <path d="M0 565c176-44 314-26 445 28 160 66 288 62 444-4 126-54 220-60 311-24v235H0z" fill="#24292d"/>
  <circle cx="210" cy="218" r="86" fill="#ffcb05"/>
  <circle cx="970" cy="170" r="62" fill="#ff4d8d"/>
  <path d="M134 658h176l-30-144H164z" fill="#24d17e"/>
  <path d="M178 536h90v34h-90z" fill="#111315"/>
  <path d="M812 620h230l-42-170H850z" fill="#38bdf8"/>
  <path d="M884 480h90v36h-90z" fill="#111315"/>
  <path d="M458 690h250l-52-222H510z" fill="#ffcb05"/>
  <path d="M536 502h86v38h-86z" fill="#111315"/>
  <path d="M90 332c94-56 170-58 264-8 102 54 199 46 306-24 86-56 178-64 278-10 72 39 142 42 212 10" fill="none" stroke="#fffaf0" stroke-width="18" stroke-linecap="round" opacity=".28"/>
  <path d="M118 374c78-42 142-40 225 6 106 58 210 50 318-20 75-49 151-50 235-3 74 42 139 46 197 18" fill="none" stroke="#24d17e" stroke-width="12" stroke-linecap="round" opacity=".48"/>
  <g fill="#fffaf0" opacity=".78">
    <rect x="430" y="150" width="42" height="42" rx="4"/>
    <rect x="500" y="124" width="42" height="42" rx="4"/>
    <rect x="570" y="150" width="42" height="42" rx="4"/>
    <rect x="640" y="124" width="42" height="42" rx="4"/>
    <rect x="710" y="150" width="42" height="42" rx="4"/>
  </g>
  <text x="88" y="114" fill="#fffaf0" font-family="Arial, sans-serif" font-size="74" font-weight="900">ROLEQUEST</text>
  <text x="92" y="178" fill="#24d17e" font-family="Arial, sans-serif" font-size="34" font-weight="900">RPG SOCIAL DA NOITE</text>
</svg>
